<svg height="511pt" viewBox="0 -118 511.96587 511" width="511pt" xmlns="http://www.w3.org/2000/svg"><path d="m8.5 122.800781 139.664062-108.628906c8.324219-6.472656 19.855469-6.894531 28.628907-1.042969 6.8125 4.542969 10.90625 12.191406 10.90625 20.378906v25.011719c-.003907 7.8125-5.003907 14.746094-12.417969 17.21875-7.277344 2.425781-15.148438-1.507812-17.578125-8.789062-.882813-2.660157-3.082031-4.675781-5.808594-5.320313-2.730469-.644531-5.597656.171875-7.578125 2.15625l-29.722656 29.71875c-2.429688 2.433594-4.261719 5.394532-5.351562 8.652344l-6.875 20.644531zm0 0" fill="#37474f"/><path d="m477.832031 122.800781h-469.332031v128h17.066406c4.710938 0 8.53125 3.820313 8.53125 8.53125v8.535157h173.996094c3.214844-.011719 6.148438-1.824219 7.59375-4.695313l17.664062-34.816406c2.558594-3.59375 5.917969-6.542969 9.8125-8.617188 3.964844-2.027343 8.351563-3.078125 12.800782-3.070312 8.992187-.011719 17.425781 4.347656 22.613281 11.6875l17.664063 34.816406c1.445312 2.871094 4.382812 4.683594 7.59375 4.695313h173.996093v-8.535157c0-4.710937 3.820313-8.53125 8.535157-8.53125h17.066406v-128zm0 0" fill="#607d8b"/><path d="m477.832031 122.800781v128h-17.066406c-4.710937 0-8.53125 3.820313-8.53125 8.53125v8.535157h-148.398437c-3.210938-.011719-6.148438-1.824219-7.59375-4.695313l-17.664063-34.816406c-5.1875-7.339844-13.621094-11.699219-22.613281-11.6875-4.449219-.007813-8.835938 1.042969-12.800782 3.070312-3.894531 2.074219-7.253906 5.023438-9.8125 8.617188l-17.664062 34.816406c-1.445312 2.871094-4.378906 4.683594-7.59375 4.695313h-173.996094v-8.535157c0-4.710937-3.820312-8.53125-8.53125-8.53125h-17.066406v-128zm0 0" fill="#cfd8dc"/><path d="m503.433594 122.800781-139.667969-108.628906c-8.324219-6.472656-19.855469-6.894531-28.628906-1.042969-6.8125 4.542969-10.902344 12.191406-10.902344 20.378906v25.011719c0 7.8125 5 14.746094 12.414063 17.21875 7.28125 2.425781 15.148437-1.507812 17.578124-8.789062.882813-2.660157 3.082032-4.675781 5.8125-5.320313 2.726563-.644531 5.597657.171875 7.578126 2.15625l29.71875 29.71875c2.429687 2.433594 4.261718 5.394532 5.351562 8.652344l6.878906 20.644531zm0 0" fill="#37474f"/><path d="m196.234375 182.53125v25.601562c0 14.140626-11.464844 25.601563-25.601563 25.601563h-85.332031c-5.035156-.027344-9.957031-1.507813-14.167969-4.269531-7.160156-4.730469-11.457031-12.75-11.433593-21.332032v-25.601562c0-14.136719 11.460937-25.597656 25.601562-25.597656h85.332031c14.117188.046875 25.554688 11.480468 25.601563 25.597656zm0 0" fill="#c52828"/><path d="m426.632812 233.734375h-85.332031c-14.140625 0-25.601562-11.460937-25.601562-25.601563v-25.601562c0-14.136719 11.460937-25.597656 25.601562-25.597656h85.332031c14.136719 0 25.601563 11.460937 25.601563 25.597656v25.601562c0 14.140626-11.464844 25.601563-25.601563 25.601563zm0 0" fill="#0377bc"/><path d="m191.625 167.941406c-45.699219 7.128906-87.921875 28.6875-120.492188 61.523438-7.160156-4.730469-11.457031-12.75-11.433593-21.332032v-25.601562c0-14.136719 11.460937-25.597656 25.601562-25.597656h85.332031c8.386719-.027344 16.246094 4.09375 20.992188 11.007812zm0 0" fill="#f44335"/><path d="m447.625 167.941406c-45.699219 7.128906-87.921875 28.6875-120.492188 61.523438-7.160156-4.730469-11.457031-12.75-11.433593-21.332032v-25.601562c0-14.136719 11.460937-25.597656 25.601562-25.597656h85.332031c8.386719-.027344 16.246094 4.09375 20.992188 11.007812zm0 0" fill="#02a9f4"/><path d="m170.632812 148.398438h-85.332031c-18.851562 0-34.136719 15.285156-34.136719 34.132812v25.601562c0 18.851563 15.285157 34.132813 34.136719 34.132813h85.332031c18.851563 0 34.132813-15.28125 34.132813-34.132813v-25.601562c0-18.847656-15.28125-34.132812-34.132813-34.132812zm17.066407 59.734374c0 9.425782-7.640625 17.066407-17.066407 17.066407h-85.332031c-9.425781 0-17.066406-7.640625-17.066406-17.066407v-25.601562c0-9.421875 7.640625-17.066406 17.066406-17.066406h85.332031c9.425782 0 17.066407 7.644531 17.066407 17.066406zm0 0"/><path d="m426.632812 148.398438h-85.332031c-18.851562 0-34.136719 15.285156-34.136719 34.132812v25.601562c0 18.851563 15.285157 34.132813 34.136719 34.132813h85.332031c18.851563 0 34.132813-15.28125 34.132813-34.132813v-25.601562c0-18.847656-15.28125-34.132812-34.132813-34.132812zm17.066407 59.734374c0 9.425782-7.640625 17.066407-17.066407 17.066407h-85.332031c-9.425781 0-17.066406-7.640625-17.066406-17.066407v-25.601562c0-9.421875 7.640625-17.066406 17.066406-17.066406h85.332031c9.425782 0 17.066407 7.644531 17.066407 17.066406zm0 0"/><path d="m511.511719 120.554688c-.117188-.5-.277344-.992188-.476563-1.46875-.242187-.460938-.527344-.894532-.851562-1.304688-.335938-.472656-.71875-.917969-1.136719-1.320312-.136719-.121094-.203125-.28125-.347656-.402344l-139.691407-108.621094c-9.960937-7.742188-23.460937-9.136719-34.792968-3.59375-11.332032 5.542969-18.515625 17.058594-18.515625 29.671875v25.003906c-.011719 11.488281 7.34375 21.691407 18.246093 25.316407 5.519532 1.949218 11.597657 1.554687 16.816407-1.09375 5.222656-2.648438 9.132812-7.320313 10.820312-12.925782l29.714844 29.714844c1.496094 1.496094 2.621094 3.324219 3.292969 5.332031l3.140625 9.386719h-283.519531l3.140624-9.386719c.667969-2.003906 1.792969-3.824219 3.285157-5.316406l29.011719-29.867187c3.925781 11.75 16.625 18.101562 28.382812 14.191406 10.898438-3.644532 18.230469-13.863282 18.203125-25.351563v-25.003906c0-12.613281-7.1875-24.128906-18.519531-29.671875-11.332032-5.542969-24.832032-4.148438-34.789063 3.59375l-139.667969 108.621094c-.144531.121094-.210937.28125-.347656.402344-.417968.402343-.796875.84375-1.125 1.320312-.328125.40625-.613281.84375-.855468 1.304688-.199219.476562-.359376.96875-.476563 1.46875-.179687.554687-.296875 1.128906-.351563 1.707031 0 .171875-.101562.324219-.101562.503906v128.035156c0 4.710938 3.820312 8.53125 8.535156 8.53125h17.03125v8.535157c0 4.710937 3.820313 8.53125 8.53125 8.53125h173.960938c6.433594.019531 12.328125-3.597657 15.222656-9.34375l17.324219-34.175782c3.625-4.8125 9.300781-7.644531 15.328125-7.644531 6.023437 0 11.699218 2.832031 15.324218 7.644531l17.355469 34.21875c2.917969 5.738282 8.824219 9.339844 15.257813 9.300782h173.960937c4.714844 0 8.535157-3.820313 8.535157-8.53125v-8.535157h17.066406c4.710937 0 8.53125-3.820312 8.53125-8.53125v-128c0-.179687-.09375-.332031-.101563-.503906-.050781-.59375-.167969-1.175781-.351562-1.742187zm-100.691407-21.078126c-1.507812-4.527343-4.050781-8.640624-7.425781-12.011718l-29.710937-29.714844c-4.070313-4.078125-9.960938-5.753906-15.566406-4.429688-5.609376 1.324219-10.128907 5.457032-11.945313 10.921876-.445313 1.367187-1.417969 2.496093-2.699219 3.136718-1.285156.640625-2.769531.742188-4.128906.277344-3.933594-1.304688-6.585938-4.992188-6.578125-9.136719v-25.003906c0-6.097656 3.472656-11.660156 8.949219-14.339844 5.476562-2.675781 12-2.003906 16.8125 1.734375l120.03125 93.355469h-62.847656zm-257.417968-78.566406c4.816406-3.738281 11.339844-4.410156 16.8125-1.734375 5.476562 2.679688 8.949218 8.242188 8.949218 14.339844v25.003906c.003907 4.140625-2.648437 7.816407-6.578124 9.121094-1.351563.449219-2.828126.339844-4.097657-.300781-1.273437-.640625-2.238281-1.761719-2.6875-3.113282-1.816406-5.46875-6.335937-9.601562-11.945312-10.929687-5.605469-1.324219-11.5.351563-15.574219 4.425781l-29.710938 29.714844c-3.371093 3.371094-5.910156 7.476562-7.417968 11.996094l-4.929688 14.832031h-62.847656zm315.898437 238.421875h-165.4375l-17.671875-34.839843c-.195312-.382813-.417968-.746094-.667968-1.09375-6.796876-9.574219-17.8125-15.265626-29.558594-15.265626-11.742188 0-22.761719 5.691407-29.558594 15.265626-.25.347656-.472656.710937-.664062 1.09375l-17.683594 34.839843h-165.425782c0-9.425781-7.640624-17.066406-17.066406-17.066406h-8.535156v-110.933594h477.867188v110.933594h-8.53125c-9.425782 0-17.066407 7.640625-17.066407 17.066406zm0 0"/></svg>