<?xml version="1.0" encoding="iso-8859-1"?>
<!-- Generator: Adobe Illustrator 19.0.0, SVG Export Plug-In . SVG Version: 6.00 Build 0)  -->
<svg version="1.1" id="Capa_1" xmlns="http://www.w3.org/2000/svg" xmlns:xlink="http://www.w3.org/1999/xlink" x="0px" y="0px"
	 viewBox="0 0 512.044 512.044" style="enable-background:new 0 0 512.044 512.044;" xml:space="preserve">
<g transform="translate(-1)">
	<g transform="translate(1 1)">
		<path style="fill:#00838F;" d="M503.489,268.59c0.748,37.564-24.981,70.491-61.611,78.848c-4.776,0.96-9.635,1.446-14.507,1.451
			H84.673c-43.188-1.165-77.261-37.11-76.117-80.299c-0.151-23.495,9.831-45.916,27.392-61.525c0.405-0.367,0.833-0.709,1.28-1.024
			c9.798-8.378,21.629-14.029,34.304-16.384c-3.889-13.511-5.871-27.498-5.888-41.557c-0.436-46.473,21.828-90.237,59.648-117.248
			c21.576-15.137,47.286-23.27,73.643-23.296c47.753,0.466,91.509,26.753,114.347,68.693c11.852-5.574,24.79-8.458,37.888-8.448
			c52.565,0,95.232,44.971,95.232,100.352c-0.026,7.435-0.856,14.845-2.475,22.101C479.509,199.448,504.142,231.845,503.489,268.59z
			"/>
		<path style="fill:#00BCD4;" d="M469.356,285.657c0.178,23.592-9.838,46.113-27.477,61.781c-4.776,0.96-9.635,1.446-14.507,1.451
			H84.673c-43.188-1.165-77.261-37.11-76.117-80.299c-0.151-23.495,9.831-45.916,27.392-61.525c0.47-0.163,0.957-0.278,1.451-0.341
			c-0.097-0.216-0.154-0.447-0.171-0.683c9.798-8.378,21.629-14.029,34.304-16.384c-3.889-13.511-5.871-27.498-5.888-41.557
			c-0.436-46.473,21.828-90.237,59.648-117.248c12.766-4.119,26.096-6.221,39.509-6.229c47.753,0.466,91.509,26.753,114.347,68.693
			c10.784-5.071,22.481-7.915,34.389-8.363c1.195-0.085,2.304-0.085,3.499-0.085c52.565,0,95.232,44.971,95.232,100.352
			c-0.026,7.435-0.856,14.845-2.475,22.101C445.375,216.514,470.009,248.912,469.356,285.657z"/>
		<polygon style="fill:#FFB301;" points="324.289,169.689 290.156,169.689 290.156,246.489 221.889,246.489 221.889,169.689 
			187.756,169.689 243.222,107.31 256.022,92.889 		"/>
		<polygon style="fill:#FEC108;" points="298.689,169.689 264.556,169.689 264.556,246.489 221.889,246.489 221.889,169.689 
			187.756,169.689 243.222,107.31 		"/>
		<path style="fill:#607D8B;" d="M358.422,246.745v185.173l-68.267,70.571h-128c-4.782-0.075-8.599-4.008-8.533-8.789V246.745
			c-0.066-4.782,3.752-8.714,8.533-8.789h187.733C354.671,238.03,358.489,241.963,358.422,246.745z"/>
		<path style="fill:#CFD8DC;" d="M332.822,246.745v185.173l-68.267,70.571h-102.4c-4.782-0.075-8.599-4.008-8.533-8.789V246.745
			c-0.066-4.782,3.752-8.714,8.533-8.789h162.133C329.071,238.03,332.889,241.963,332.822,246.745z"/>
		<path style="fill:#607D8B;" d="M358.422,434.222l-68.267,68.267v-60.681c0-4.189,3.396-7.585,7.585-7.585H358.422z"/>
	</g>
	<g>
		<path d="M454.718,185.197c0.801-5.31,1.208-10.672,1.217-16.042c0-60.042-46.55-108.892-103.767-108.892
			c-11.742-0.012-23.389,2.106-34.375,6.25C292.689,25.418,248.091,0.258,199.935,0.022c-78.204,0-141.825,66.875-141.825,149.075
			c0.006,11.888,1.349,23.737,4.004,35.325C25.25,196.306,0.463,230.861,1.022,269.589c-1.072,47.874,36.78,87.597,84.65,88.833
			h34.817c4.713,0,8.533-3.82,8.533-8.533s-3.821-8.533-8.533-8.533H85.672c-38.446-1.231-68.661-33.316-67.583-71.767
			c-0.731-33.924,22.798-63.561,56.004-70.542c2.364-0.442,4.432-1.861,5.695-3.908c1.264-2.046,1.606-4.531,0.942-6.842
			c-3.673-12.743-5.543-25.938-5.554-39.2c0-72.792,55.967-132.008,124.758-132.008c44.708,0.368,85.676,25.03,106.925,64.367
			c2.197,3.869,6.996,5.403,11.029,3.525c10.724-5.042,22.429-7.654,34.279-7.65c47.808,0,86.7,41.192,86.7,91.825
			c-0.028,6.818-0.791,13.613-2.275,20.267c-1.001,4.556,1.839,9.071,6.379,10.142c31.816,8.151,53.788,37.191,52.983,70.025
			c1.077,38.451-29.137,70.536-67.583,71.767h-34.817c-4.713,0-8.533,3.82-8.533,8.533s3.82,8.533,8.533,8.533h34.817
			c47.87-1.237,85.722-40.959,84.65-88.833C513.697,231.866,490.24,197.913,454.718,185.197z"/>
		<path d="M350.889,238.956h-51.2v-59.733h25.6c3.359-0.001,6.405-1.973,7.781-5.037s0.828-6.651-1.402-9.163l-68.267-76.8
			c-1.662-1.748-3.968-2.738-6.379-2.738c-2.412,0-4.718,0.99-6.379,2.738l-68.267,76.8c-2.23,2.512-2.779,6.099-1.402,9.163
			c1.376,3.064,4.422,5.036,7.781,5.037h25.6v59.733h-51.2c-9.421,0.011-17.056,7.645-17.067,17.067v238.933
			c0.011,9.421,7.645,17.056,17.067,17.067h128c2.264-0.01,4.433-0.91,6.039-2.506l68.254-68.254l0.029-0.037
			c0.68-0.705,1.231-1.523,1.63-2.418c0.11-0.264,0.205-0.533,0.287-0.807c0.254-0.727,0.407-1.485,0.455-2.253
			c0.012-0.184,0.106-0.34,0.106-0.527v-179.2C367.945,246.601,360.31,238.966,350.889,238.956z M222.889,162.156h-15.13
			l49.263-55.425l49.263,55.425h-15.13c-2.263-0.001-4.434,0.898-6.035,2.499c-1.6,1.6-2.499,3.771-2.499,6.035v68.267h-51.2
			v-68.267c0.001-2.263-0.898-4.434-2.499-6.035C227.323,163.054,225.152,162.155,222.889,162.156z M163.156,256.022h187.733
			v170.667h-52.15c-8.896,0.011-16.106,7.22-16.117,16.117v52.15H163.156V256.022z M299.689,482.889v-39.133h39.133L299.689,482.889
			z"/>
		<path d="M205.822,281.622h-17.067c-4.713,0-8.533,3.82-8.533,8.533s3.821,8.533,8.533,8.533h17.067
			c4.713,0,8.533-3.82,8.533-8.533S210.535,281.622,205.822,281.622z"/>
		<path d="M239.956,298.689h85.333c4.713,0,8.533-3.82,8.533-8.533s-3.82-8.533-8.533-8.533h-85.333
			c-4.713,0-8.533,3.82-8.533,8.533S235.243,298.689,239.956,298.689z"/>
		<path d="M205.822,315.756h-17.067c-4.713,0-8.533,3.82-8.533,8.533s3.821,8.533,8.533,8.533h17.067
			c4.713,0,8.533-3.82,8.533-8.533S210.535,315.756,205.822,315.756z"/>
		<path d="M239.956,332.822h85.333c4.713,0,8.533-3.82,8.533-8.533s-3.82-8.533-8.533-8.533h-85.333
			c-4.713,0-8.533,3.82-8.533,8.533S235.243,332.822,239.956,332.822z"/>
		<path d="M205.822,349.889h-17.067c-4.713,0-8.533,3.82-8.533,8.533s3.821,8.533,8.533,8.533h17.067
			c4.713,0,8.533-3.82,8.533-8.533S210.535,349.889,205.822,349.889z"/>
		<path d="M325.289,366.956c4.713,0,8.533-3.82,8.533-8.533s-3.82-8.533-8.533-8.533h-85.333c-4.713,0-8.533,3.82-8.533,8.533
			s3.821,8.533,8.533,8.533H325.289z"/>
	</g>
</g>
<g>
</g>
<g>
</g>
<g>
</g>
<g>
</g>
<g>
</g>
<g>
</g>
<g>
</g>
<g>
</g>
<g>
</g>
<g>
</g>
<g>
</g>
<g>
</g>
<g>
</g>
<g>
</g>
<g>
</g>
</svg>
