<svg height="512pt" viewBox="-68 0 512 512" width="512pt" xmlns="http://www.w3.org/2000/svg"><path d="m331.605469 303.617188c-.085938 0-.171875.085937-.257813.085937-37.886718 26.367187-92.414062 72.789063-92.414062 122.964844v34.132812h-102.398438v-34.132812c0-50.175781-54.53125-96.597657-92.417968-122.964844-.085938 0-.171876-.085937-.253907-.085937zm0 0" fill="#707070"/><path d="m306.003906 303.617188c-.082031 0-.167968.085937-.253906.085937-37.886719 26.367187-92.417969 72.789063-92.417969 122.964844v34.132812h-76.796875v-34.132812c0-50.175781-54.53125-96.597657-92.417968-122.964844-.085938 0-.171876-.085937-.253907-.085937zm0 0" fill="#9e9e9e"/><path d="m238.933594 460.800781v34.132813c-.015625 4.707031-3.828125 8.519531-8.535156 8.53125h-85.332032c-4.707031-.011719-8.519531-3.824219-8.53125-8.53125v-34.132813zm0 0" fill="#37474f"/><path d="m213.332031 460.800781v34.132813c-.011719 4.707031-3.824219 8.519531-8.53125 8.53125h-59.734375c-4.707031-.011719-8.519531-3.824219-8.53125-8.53125v-34.132813zm0 0" fill="#607d8b"/><path d="m366.933594 273.066406c0 11.433594-13.140625 22.015625-35.328125 30.550782-.085938 0-.171875.085937-.257813.085937-32.679687 12.457031-84.820312 20.5625-143.613281 20.5625-4.351563 0-8.621094-.085937-12.800781-.167969-53.503906-1.027344-100.523438-8.875-130.816406-20.394531-.085938 0-.171876-.085937-.253907-.085937-22.1875-8.535157-35.328125-19.117188-35.328125-30.550782 0-13.996094 19.539063-26.625 51.199219-35.753906h256c31.65625 9.128906 51.199219 21.757812 51.199219 35.753906zm0 0" fill="#37474f"/><path d="m341.332031 273.066406c0 11.433594-13.140625 22.015625-35.328125 30.550782-.082031 0-.167968.085937-.253906.085937-30.292969 11.519531-77.3125 19.367187-130.816406 20.394531-53.503906-1.027344-100.523438-8.875-130.816406-20.394531-.085938 0-.171876-.085937-.253907-.085937-22.1875-8.535157-35.328125-19.117188-35.328125-30.550782 0-13.996094 19.539063-26.625 51.199219-35.753906h230.398437c31.660157 9.128906 51.199219 21.757812 51.199219 35.753906zm0 0" fill="#607d8b"/><path d="m315.734375 93.867188v170.667968c-.015625 4.707032-3.828125 8.519532-8.535156 8.53125h-238.933594c-4.707031-.011718-8.519531-3.824218-8.53125-8.53125v-247.46875c.011719-4.707031 3.824219-8.519531 8.53125-8.53125h162.132813zm0 0" fill="#fec108"/><path d="m290.132812 93.867188v170.667968c-.011718 4.707032-3.824218 8.519532-8.53125 8.53125h-213.335937c-4.707031-.011718-8.519531-3.824218-8.53125-8.53125v-247.46875c.011719-4.707031 3.824219-8.519531 8.53125-8.53125h153.601563zm0 0" fill="#ffdc00"/><path d="m315.734375 93.867188h-76.800781c-4.707032-.015626-8.519532-3.828126-8.535156-8.535157v-76.796875zm0 0" fill="#fdd834"/><path d="m290.132812 93.867188h-51.199218c-4.707032-.015626-8.519532-3.828126-8.535156-8.535157v-51.199219zm0 0" fill="#ffeb3a"/><path d="m136.535156 136.535156v136.53125h-42.667968v-136.53125c.011718-4.710937 3.824218-8.523437 8.53125-8.535156h25.601562c4.707031.011719 8.519531 3.824219 8.535156 8.535156zm0 0" fill="#6a1b9a"/><path d="m213.332031 204.800781v68.265625h-42.664062v-68.265625c.011719-4.707031 3.824219-8.519531 8.53125-8.535156h25.601562c4.707031.015625 8.519531 3.828125 8.53125 8.535156zm0 0" fill="#6a1b9a"/><path d="m119.464844 136.535156v136.53125h-25.597656v-136.53125c.011718-4.710937 3.824218-8.523437 8.53125-8.535156h8.535156c4.707031.011719 8.519531 3.824219 8.53125 8.535156zm0 0" fill="#9d27b0"/><path d="m196.265625 204.800781v68.265625h-25.597656v-68.265625c.011719-4.707031 3.824219-8.519531 8.53125-8.535156h8.535156c4.707031.015625 8.519531 3.828125 8.53125 8.535156zm0 0" fill="#9d27b0"/><path d="m187.734375 332.800781c-57.878906 0-111.246094-7.675781-146.472656-21.054687-.152344-.050782-.308594-.105469-.460938-.171875-27.074219-10.402344-40.800781-23.363281-40.800781-38.507813 0-17.933594 19.835938-33.128906 57.371094-43.953125 4.527344-1.304687 9.257812 1.308594 10.5625 5.835938 1.304687 4.527343-1.308594 9.257812-5.835938 10.5625-33.238281 9.582031-45.03125 20.835937-45.03125 27.554687 0 5.351563 7.800782 14.066406 29.664063 22.507813.144531.046875.285156.097656.425781.152343 32.863281 12.527344 85.417969 20.007813 140.578125 20.007813 55.15625 0 107.710937-7.480469 140.578125-20.007813.136719-.054687.277344-.105468.425781-.152343 21.863281-8.441407 29.660157-17.15625 29.660157-22.507813 0-6.71875-11.789063-17.972656-45.027344-27.554687-4.53125-1.304688-7.144532-6.035157-5.835938-10.5625 1.304688-4.527344 6.03125-7.140625 10.5625-5.835938 37.53125 10.824219 57.367188 26.019531 57.367188 43.953125 0 15.144532-13.722656 28.105469-40.796875 38.511719-.15625.0625-.308594.117187-.464844.171875-35.222656 13.375-88.589844 21.050781-146.46875 21.050781zm0 0"/><path d="m187.734375 469.332031h-51.199219c-4.714844 0-8.535156-3.820312-8.535156-8.53125v-34.132812c0-46.800781-54.796875-92.222657-88.023438-115.453125-2.855468-1.457032-4.648437-4.394532-4.648437-7.597656.0625-2.746094 1.421875-5.300782 3.660156-6.886719 2.242188-1.585938 5.101563-2.019531 7.710938-1.164063.816406.257813 1.589843.640625 2.292969 1.128906 43.828124 30.507813 96.074218 77.816407 96.074218 129.972657v25.597656h42.667969c4.710937 0 8.53125 3.820313 8.53125 8.535156 0 4.710938-3.820313 8.53125-8.53125 8.53125zm0 0"/><path d="m238.933594 469.332031h-51.199219c-4.714844 0-8.535156-3.820312-8.535156-8.53125 0-4.714843 3.820312-8.535156 8.535156-8.535156h42.664063v-25.597656c0-52.15625 52.246093-99.464844 96.078124-129.972657.707032-.492187 1.480469-.875 2.300782-1.132812 2.609375-.855469 5.46875-.421875 7.710937 1.167969 2.238281 1.585937 3.59375 4.140625 3.648438 6.886719.003906 3.203124-1.792969 6.140624-4.644531 7.597656-33.230469 23.230468-88.027344 68.652344-88.027344 115.453125v34.132812c0 4.710938-3.820313 8.53125-8.53125 8.53125zm0 0"/><path d="m230.398438 512h-85.332032c-9.421875-.007812-17.058594-7.644531-17.066406-17.066406v-34.132813c0-4.714843 3.820312-8.535156 8.535156-8.535156h102.398438c4.710937 0 8.53125 3.820313 8.53125 8.535156v34.132813c-.007813 9.421875-7.644532 17.058594-17.066406 17.066406zm-85.332032-42.667969v25.601563h85.347656l-.011718-25.601563zm0 0"/><path d="m102.398438 469.332031c-4.710938 0-8.53125-3.820312-8.53125-8.53125v-34.132812c0-24.667969-34.746094-59.074219-48.132813-70.246094-3.585937-3.027344-4.054687-8.382813-1.050781-11.984375 3.003906-3.605469 8.355468-4.105469 11.976562-1.125 5.554688 4.628906 54.273438 46.296875 54.273438 83.355469v34.132812c0 4.710938-3.820313 8.53125-8.535156 8.53125zm0 0"/><path d="m102.398438 512c-4.710938 0-8.53125-3.820312-8.53125-8.535156v-8.53125c0-4.714844 3.820312-8.535156 8.53125-8.535156 4.714843 0 8.535156 3.820312 8.535156 8.535156v8.53125c0 4.714844-3.820313 8.535156-8.535156 8.535156zm0 0"/><path d="m273.066406 469.332031c-4.710937 0-8.53125-3.820312-8.53125-8.53125v-34.132812c0-37.058594 48.714844-78.726563 54.269532-83.355469 3.621093-3.019531 9-2.53125 12.019531 1.089844s2.53125 9-1.089844 12.019531c-13.386719 11.171875-48.132813 45.578125-48.132813 70.246094v34.132812c0 4.710938-3.820312 8.53125-8.535156 8.53125zm0 0"/><path d="m273.066406 512c-4.710937 0-8.53125-3.820312-8.53125-8.535156v-8.53125c0-4.714844 3.820313-8.535156 8.53125-8.535156 4.714844 0 8.535156 3.820312 8.535156 8.535156v8.53125c0 4.714844-3.820312 8.535156-8.535156 8.535156zm0 0"/><path d="m196.265625 366.933594h-17.066406c-4.710938 0-8.53125-3.820313-8.53125-8.535156 0-4.710938 3.820312-8.53125 8.53125-8.53125h17.066406c4.714844 0 8.535156 3.820312 8.535156 8.53125 0 4.714843-3.820312 8.535156-8.535156 8.535156zm0 0"/><path d="m59.734375 281.601562c-4.714844 0-8.535156-3.820312-8.535156-8.535156v-256c.011719-9.421875 7.644531-17.0585935 17.066406-17.066406h162.132813c4.714843 0 8.535156 3.820312 8.535156 8.535156 0 4.710938-3.820313 8.53125-8.535156 8.53125h-162.132813v256c0 4.714844-3.820313 8.535156-8.53125 8.535156zm0 0"/><path d="m315.734375 281.601562c-4.714844 0-8.535156-3.820312-8.535156-8.535156v-179.199218c0-4.714844 3.820312-8.535157 8.535156-8.535157 4.710937 0 8.53125 3.820313 8.53125 8.535157v179.199218c0 4.714844-3.820313 8.535156-8.53125 8.535156zm0 0"/><path d="m315.734375 102.398438h-76.800781c-9.421875-.007813-17.058594-7.644532-17.066406-17.066407v-76.796875c0-3.453125 2.078124-6.5625 5.265624-7.882812 3.191407-1.320313 6.859376-.5937502 9.300782 1.847656l85.332031 85.332031c2.441406 2.441407 3.171875 6.113281 1.851563 9.300781-1.324219 3.1875-4.433594 5.265626-7.882813 5.265626zm-76.800781-73.265626v56.199219h56.199218zm0 0"/><path d="m281.601562 281.601562h-187.734374c-4.714844 0-8.535157-3.820312-8.535157-8.535156 0-4.710937 3.820313-8.53125 8.535157-8.53125h187.734374c4.710938 0 8.53125 3.820313 8.53125 8.53125 0 4.714844-3.820312 8.535156-8.53125 8.535156zm0 0"/><path d="m136.535156 281.601562h-42.667968c-4.714844 0-8.535157-3.820312-8.535157-8.535156v-136.53125c.011719-9.421875 7.644531-17.058594 17.066407-17.070312h25.601562c9.421875.011718 17.058594 7.648437 17.066406 17.070312v136.53125c0 4.714844-3.820312 8.535156-8.53125 8.535156zm-34.136718-17.066406h25.601562v-128h-25.601562zm0 0"/><path d="m213.332031 281.601562h-42.664062c-4.714844 0-8.535157-3.820312-8.535157-8.535156v-68.265625c.011719-9.421875 7.644532-17.058593 17.066407-17.066406h25.601562c9.421875.007813 17.054688 7.644531 17.066407 17.066406v68.265625c0 4.714844-3.820313 8.535156-8.535157 8.535156zm-34.132812-17.066406h25.601562v-59.734375h-25.601562zm0 0"/><path d="m281.601562 145.066406h-17.066406c-4.714844 0-8.535156-3.820312-8.535156-8.53125 0-4.714844 3.820312-8.535156 8.535156-8.535156h17.066406c4.710938 0 8.53125 3.820312 8.53125 8.535156 0 4.710938-3.820312 8.53125-8.53125 8.53125zm0 0"/><path d="m281.601562 179.199219h-17.066406c-4.714844 0-8.535156-3.820313-8.535156-8.53125 0-4.714844 3.820312-8.535157 8.535156-8.535157h17.066406c4.710938 0 8.53125 3.820313 8.53125 8.535157 0 4.710937-3.820312 8.53125-8.53125 8.53125zm0 0"/><path d="m281.601562 213.332031h-17.066406c-4.714844 0-8.535156-3.820312-8.535156-8.53125 0-4.714843 3.820312-8.535156 8.535156-8.535156h17.066406c4.710938 0 8.53125 3.820313 8.53125 8.535156 0 4.710938-3.820312 8.53125-8.53125 8.53125zm0 0"/><path d="m281.601562 247.464844h-17.066406c-4.714844 0-8.535156-3.820313-8.535156-8.53125 0-4.714844 3.820312-8.535156 8.535156-8.535156h17.066406c4.710938 0 8.53125 3.820312 8.53125 8.535156 0 4.710937-3.820312 8.53125-8.53125 8.53125zm0 0"/><path d="m115.199219 93.867188c-16.492188 0-29.867188-13.371094-29.867188-29.867188s13.375-29.867188 29.867188-29.867188c16.496093 0 29.867187 13.371094 29.867187 29.867188-.019531 16.488281-13.378906 29.847656-29.867187 29.867188zm0-42.667969c-7.070313 0-12.800781 5.730469-12.800781 12.800781s5.730468 12.800781 12.800781 12.800781c7.070312 0 12.800781-5.730469 12.800781-12.800781-.007812-7.066406-5.734375-12.792969-12.800781-12.800781zm0 0"/><path d="m170.667969 136.535156c-1.121094.027344-2.230469-.207031-3.242188-.683594-1.035156-.433593-1.988281-1.039062-2.816406-1.792968-.367187-.40625-.710937-.832032-1.023437-1.28125-.324219-.472656-.582032-.992188-.769532-1.535156-.246094-.484376-.417968-1-.511718-1.535157-.101563-.5625-.15625-1.132812-.171876-1.707031.03125-2.257812.914063-4.421875 2.476563-6.058594.828125-.753906 1.78125-1.359375 2.816406-1.792968 3.175781-1.335938 6.84375-.628907 9.300781 1.792968 2.460938 2.441406 3.199219 6.128906 1.871094 9.332032-1.328125 3.199218-4.464844 5.28125-7.929687 5.261718zm0 0"/><path d="m213.332031 136.535156c-1.117187.027344-2.230469-.207031-3.242187-.683594-1.03125-.433593-1.984375-1.039062-2.816406-1.792968-.367188-.40625-.707032-.832032-1.023438-1.28125-.320312-.472656-.582031-.992188-.765625-1.535156-.25-.484376-.421875-1-.515625-1.535157-.097656-.5625-.15625-1.132812-.167969-1.707031.03125-2.257812.914063-4.421875 2.472657-6.058594.832031-.753906 1.785156-1.359375 2.816406-1.792968 3.179687-1.335938 6.847656-.628907 9.300781 1.792968 2.464844 2.441406 3.203125 6.128906 1.875 9.332032-1.332031 3.199218-4.464844 5.28125-7.933594 5.261718zm0 0"/><path d="m170.667969 170.667969c-1.121094.027343-2.230469-.207031-3.242188-.683594-1.035156-.433594-1.988281-1.039063-2.816406-1.792969-.367187-.40625-.710937-.832031-1.023437-1.28125-.324219-.472656-.582032-.992187-.769532-1.535156-.246094-.484375-.417968-1-.511718-1.535156-.101563-.5625-.15625-1.132813-.171876-1.707032.03125-2.257812.914063-4.421874 2.476563-6.058593.828125-.753907 1.78125-1.359375 2.816406-1.792969 3.175781-1.335938 6.84375-.628906 9.300781 1.792969 2.460938 2.441406 3.199219 6.128906 1.871094 9.332031s-4.464844 5.28125-7.929687 5.261719zm0 0"/><path d="m213.332031 170.667969c-1.117187.027343-2.230469-.207031-3.242187-.683594-1.03125-.433594-1.984375-1.039063-2.816406-1.792969-.367188-.40625-.707032-.832031-1.023438-1.28125-.320312-.472656-.582031-.992187-.765625-1.535156-.25-.484375-.421875-1-.515625-1.535156-.097656-.5625-.15625-1.132813-.167969-1.707032.03125-2.257812.914063-4.421874 2.472657-6.058593.832031-.753907 1.785156-1.359375 2.816406-1.792969 3.179687-1.335938 6.847656-.628906 9.300781 1.792969 2.464844 2.441406 3.203125 6.128906 1.875 9.332031-1.332031 3.203125-4.464844 5.28125-7.933594 5.261719zm0 0"/></svg>