<?xml version="1.0" encoding="iso-8859-1"?>
<!-- Generator: Adobe Illustrator 19.0.0, SVG Export Plug-In . SVG Version: 6.00 Build 0)  -->
<svg version="1.1" id="Capa_1" xmlns="http://www.w3.org/2000/svg" xmlns:xlink="http://www.w3.org/1999/xlink" x="0px" y="0px"
	 viewBox="0 0 512 512" style="enable-background:new 0 0 512 512;" xml:space="preserve">
<g>
	<g transform="translate(1 1)">
		<path style="fill:#283593;" d="M58.733,75.8h392.533c9.426,0,17.067,7.641,17.067,17.067v324.267H41.667V92.867
			C41.667,83.441,49.308,75.8,58.733,75.8z"/>
		<path style="fill:#3F51B5;" d="M58.733,75.8h366.933c9.426,0,17.067,7.641,17.067,17.067v324.267H41.667V92.867
			C41.667,83.441,49.308,75.8,58.733,75.8z"/>
		<path style="fill:#607D8B;" d="M7.533,383h494.933v25.6c0,14.138-11.462,25.6-25.6,25.6H33.133c-14.138,0-25.6-11.462-25.6-25.6
			V383z"/>
		<path style="fill:#CFD8DC;" d="M7.533,383h469.333v25.6c0,14.138-11.462,25.6-25.6,25.6H33.133c-14.138,0-25.6-11.462-25.6-25.6
			V383z"/>
		<path style="fill:#607D8B;" d="M323.267,383v8.533c-0.028,9.414-7.652,17.039-17.067,17.067H203.8
			c-9.414-0.028-17.039-7.652-17.067-17.067V383"/>
		<path style="fill:#CFD8DC;" d="M434.2,161.133v179.2c0,4.713-3.82,8.533-8.533,8.533h-281.6V161.133H434.2z"/>
		<path style="fill:#F5F5F5;" d="M408.6,161.133v179.2c0.198,4.501-3.28,8.316-7.78,8.533H144.067V161.133H408.6z"/>
		<path style="fill:#CFD8DC;" d="M144.067,161.133v187.733H84.333c-4.713,0-8.533-3.821-8.533-8.533v-179.2H144.067z"/>
		<path style="fill:#FDD834;" d="M434.2,118.467v42.667H75.8v-42.667c0-4.713,3.821-8.533,8.533-8.533h341.333
			C430.38,109.933,434.2,113.754,434.2,118.467z"/>
		<path style="fill:#FFEB3A;" d="M408.6,118.467v42.667H75.8v-42.667c-0.162-4.542,3.382-8.359,7.924-8.533h316.952
			C405.218,110.108,408.762,113.925,408.6,118.467z"/>
	</g>
	<g>
		<path d="M503.467,375.467h-25.6v-281.6c-0.015-14.132-11.468-25.585-25.6-25.6H59.733c-14.132,0.015-25.585,11.468-25.6,25.6
			v281.6h-25.6C3.821,375.467,0,379.287,0,384v25.6c0.022,18.842,15.291,34.112,34.133,34.133h443.733
			c18.843-0.02,34.113-15.29,34.133-34.133V384c0.001-2.263-0.898-4.434-2.499-6.035
			C507.901,376.365,505.73,375.466,503.467,375.467z M51.2,93.867c0.006-4.71,3.823-8.527,8.533-8.533h392.533
			c4.711,0.005,8.529,3.822,8.533,8.533v281.6H51.2V93.867z M315.733,392.533c-0.006,4.71-3.823,8.527-8.533,8.533H204.8
			c-4.71-0.006-8.527-3.823-8.533-8.533H315.733z M494.933,409.6c-0.011,9.421-7.645,17.056-17.067,17.067H34.133
			c-9.422-0.009-17.057-7.645-17.067-17.067v-17.067H179.2c0.015,14.132,11.468,25.585,25.6,25.6h102.4
			c14.132-0.015,25.585-11.468,25.6-25.6h162.133V409.6z"/>
		<path d="M443.733,349.867V110.933c0.001-2.263-0.898-4.434-2.499-6.035c-1.6-1.6-3.771-2.499-6.035-2.499H76.8
			c-4.713,0-8.533,3.821-8.533,8.533v238.933c0,4.713,3.821,8.533,8.533,8.533h358.4c2.263,0.001,4.434-0.898,6.035-2.499
			S443.734,352.13,443.733,349.867z M426.667,119.467V153.6H85.333v-34.133H426.667z M85.333,170.667h51.2v170.667h-51.2V170.667z
			 M153.6,341.333V170.667h273.067v170.667H153.6z"/>
		<path d="M102.4,145.067c2.259-0.034,4.422-0.918,6.059-2.475c0.341-0.429,0.683-0.854,1.021-1.279
			c0.324-0.476,0.583-0.993,0.771-1.538c0.245-0.485,0.418-1.003,0.513-1.538c0.098-0.563,0.155-1.133,0.171-1.704
			c-0.033-2.259-0.917-4.422-2.475-6.059c-2.043-2.014-4.956-2.878-7.767-2.304c-0.535,0.091-1.053,0.263-1.538,0.508
			c-0.524,0.172-1.014,0.433-1.45,0.771c-0.513,0.341-0.937,0.683-1.363,1.025c-2.461,2.441-3.201,6.129-1.872,9.331
			C95.799,143.007,98.933,145.087,102.4,145.067z"/>
		<path d="M120.146,139.775c0.187,0.544,0.447,1.062,0.771,1.538c0.341,0.425,0.683,0.85,1.025,1.279
			c1.636,1.558,3.799,2.441,6.058,2.475c0.571-0.016,1.141-0.073,1.704-0.171c0.535-0.095,1.053-0.268,1.538-0.513
			c0.544-0.187,1.062-0.447,1.538-0.771c0.425-0.337,0.85-0.679,1.279-1.021c0.366-0.405,0.707-0.833,1.021-1.279
			c0.324-0.476,0.583-0.993,0.771-1.538c0.245-0.485,0.418-1.003,0.513-1.538c0.098-0.563,0.155-1.133,0.171-1.704
			c-0.033-2.259-0.917-4.422-2.475-6.059c-2.493-2.347-6.116-3.046-9.304-1.796c-1.054,0.393-2.013,1.005-2.813,1.796
			c-1.559,1.635-2.443,3.799-2.475,6.059c0.013,0.572,0.071,1.141,0.171,1.704C119.729,138.773,119.9,139.291,120.146,139.775z"/>
		<path d="M153.6,145.067c2.262-0.018,4.431-0.904,6.059-2.475c1.557-1.637,2.44-3.8,2.475-6.059
			c-0.013-1.116-0.245-2.219-0.683-3.246c-0.434-1.032-1.04-1.983-1.792-2.813c-3.421-3.158-8.695-3.158-12.117,0
			c-0.754,0.828-1.362,1.78-1.796,2.813c-0.436,1.027-0.667,2.13-0.679,3.246c-0.022,2.27,0.87,4.453,2.475,6.058
			S151.33,145.089,153.6,145.067z"/>
		<path d="M110.933,196.267c0.571-0.016,1.141-0.073,1.704-0.171c0.535-0.095,1.053-0.268,1.538-0.513
			c0.544-0.187,1.062-0.447,1.538-0.771c0.929-0.585,1.715-1.371,2.3-2.3c0.324-0.476,0.583-0.993,0.771-1.538
			c0.245-0.485,0.418-1.003,0.513-1.538c0.098-0.563,0.155-1.133,0.171-1.704c-0.02-0.573-0.077-1.143-0.171-1.708
			c-0.095-0.535-0.268-1.053-0.513-1.538c-0.188-0.543-0.448-1.058-0.771-1.533c-0.312-0.448-0.653-0.876-1.021-1.279
			c-0.429-0.341-0.854-0.683-1.279-1.025c-0.476-0.324-0.993-0.583-1.538-0.771c-0.484-0.246-1.002-0.417-1.538-0.508
			c-2.81-0.574-5.721,0.29-7.763,2.304c-2.462,2.441-3.202,6.129-1.872,9.331C104.332,194.207,107.467,196.287,110.933,196.267z"/>
		<path d="M118.783,218.621c-0.188-0.543-0.448-1.058-0.771-1.533c-0.312-0.448-0.653-0.876-1.021-1.279
			c-0.405-0.367-0.833-0.709-1.279-1.025c-0.476-0.324-0.993-0.583-1.538-0.771c-0.484-0.246-1.002-0.417-1.538-0.508
			c-2.81-0.574-5.721,0.29-7.763,2.304c-2.165,2.164-3.01,5.319-2.218,8.276c0.792,2.957,3.102,5.266,6.058,6.059
			c2.957,0.792,6.112-0.053,8.276-2.217c0.366-0.405,0.707-0.833,1.021-1.279c0.324-0.476,0.583-0.993,0.771-1.538
			c0.245-0.485,0.418-1.003,0.513-1.538c0.094-0.564,0.151-1.133,0.171-1.704c-0.015-0.573-0.072-1.144-0.171-1.708
			C119.201,219.624,119.028,219.106,118.783,218.621z"/>
		<path d="M118.783,252.754c-0.188-0.543-0.448-1.058-0.771-1.533c-0.312-0.448-0.653-0.876-1.021-1.279
			c-3.34-3.313-8.73-3.298-12.052,0.032s-3.322,8.721,0,12.052s8.712,3.345,12.052,0.033c0.366-0.405,0.707-0.833,1.021-1.279
			c0.324-0.476,0.583-0.993,0.771-1.538c0.245-0.485,0.418-1.003,0.513-1.538c0.098-0.563,0.155-1.132,0.171-1.704
			c-0.02-0.573-0.077-1.143-0.171-1.708C119.201,253.757,119.028,253.239,118.783,252.754z"/>
		<path d="M116.992,284.075c-3.421-3.158-8.695-3.158-12.117,0c-0.773,0.814-1.383,1.769-1.796,2.813
			c-0.906,2.068-0.906,4.42,0,6.487c0.434,1.034,1.041,1.987,1.795,2.817c2.441,2.462,6.129,3.201,9.331,1.872
			c3.202-1.329,5.281-4.464,5.261-7.931c0.03-1.121-0.205-2.232-0.683-3.246C118.349,285.856,117.744,284.904,116.992,284.075z"/>
		<path d="M115.713,317.183c-0.476-0.324-0.993-0.583-1.538-0.771c-0.484-0.246-1.002-0.417-1.538-0.508
			c-2.81-0.574-5.721,0.29-7.763,2.304c-3.346,3.346-3.346,8.771,0,12.117c3.346,3.346,8.771,3.346,12.117,0
			c0.366-0.405,0.707-0.833,1.021-1.279c0.324-0.476,0.583-0.993,0.771-1.538c0.245-0.485,0.418-1.003,0.513-1.538
			c0.098-0.563,0.155-1.133,0.171-1.704c-0.033-2.259-0.917-4.422-2.475-6.059C116.563,317.867,116.137,317.525,115.713,317.183z"/>
		<path d="M179.2,196.267h25.6c4.713,0,8.533-3.821,8.533-8.533c0-4.713-3.821-8.533-8.533-8.533h-25.6
			c-4.713,0-8.533,3.821-8.533,8.533C170.667,192.446,174.487,196.267,179.2,196.267z"/>
		<path d="M238.933,196.267h25.6c4.713,0,8.533-3.821,8.533-8.533c0-4.713-3.82-8.533-8.533-8.533h-25.6
			c-4.713,0-8.533,3.821-8.533,8.533C230.4,192.446,234.221,196.267,238.933,196.267z"/>
		<path d="M298.667,196.267h17.067c4.713,0,8.533-3.821,8.533-8.533c0-4.713-3.821-8.533-8.533-8.533h-17.067
			c-4.713,0-8.533,3.821-8.533,8.533C290.133,192.446,293.954,196.267,298.667,196.267z"/>
		<path d="M349.867,196.267h25.6c4.713,0,8.533-3.821,8.533-8.533c0-4.713-3.821-8.533-8.533-8.533h-25.6
			c-4.713,0-8.533,3.821-8.533,8.533C341.333,192.446,345.154,196.267,349.867,196.267z"/>
		<path d="M179.2,264.533h25.6c4.713,0,8.533-3.821,8.533-8.533c0-4.713-3.821-8.533-8.533-8.533h-25.6
			c-4.713,0-8.533,3.821-8.533,8.533C170.667,260.713,174.487,264.533,179.2,264.533z"/>
		<path d="M264.533,264.533c4.713,0,8.533-3.821,8.533-8.533c0-4.713-3.82-8.533-8.533-8.533h-25.6
			c-4.713,0-8.533,3.821-8.533,8.533c0,4.713,3.821,8.533,8.533,8.533H264.533z"/>
		<path d="M315.733,264.533c4.713,0,8.533-3.821,8.533-8.533c0-4.713-3.821-8.533-8.533-8.533h-17.067
			c-4.713,0-8.533,3.821-8.533,8.533c0,4.713,3.82,8.533,8.533,8.533H315.733z"/>
		<path d="M341.333,256c0,4.713,3.821,8.533,8.533,8.533h25.6c4.713,0,8.533-3.821,8.533-8.533c0-4.713-3.821-8.533-8.533-8.533
			h-25.6C345.154,247.467,341.333,251.287,341.333,256z"/>
		<path d="M204.8,315.733h-25.6c-4.713,0-8.533,3.821-8.533,8.533s3.821,8.533,8.533,8.533h25.6c4.713,0,8.533-3.82,8.533-8.533
			S209.513,315.733,204.8,315.733z"/>
		<path d="M264.533,315.733h-25.6c-4.713,0-8.533,3.821-8.533,8.533s3.821,8.533,8.533,8.533h25.6c4.713,0,8.533-3.82,8.533-8.533
			S269.246,315.733,264.533,315.733z"/>
		<path d="M315.733,315.733h-17.067c-4.713,0-8.533,3.821-8.533,8.533s3.82,8.533,8.533,8.533h17.067
			c4.713,0,8.533-3.82,8.533-8.533S320.446,315.733,315.733,315.733z"/>
		<path d="M375.467,315.733h-25.6c-4.713,0-8.533,3.821-8.533,8.533s3.821,8.533,8.533,8.533h25.6c4.713,0,8.533-3.82,8.533-8.533
			S380.18,315.733,375.467,315.733z"/>
		<path d="M196.267,221.867c0,4.713,3.821,8.533,8.533,8.533h25.6c4.713,0,8.533-3.821,8.533-8.533c0-4.713-3.821-8.533-8.533-8.533
			h-25.6C200.087,213.333,196.267,217.154,196.267,221.867z"/>
		<path d="M256,221.867c0,4.713,3.821,8.533,8.533,8.533h25.6c4.713,0,8.533-3.821,8.533-8.533c0-4.713-3.821-8.533-8.533-8.533
			h-25.6C259.821,213.333,256,217.154,256,221.867z"/>
		<path d="M315.733,221.867c0,4.713,3.821,8.533,8.533,8.533h17.067c4.713,0,8.533-3.821,8.533-8.533
			c0-4.713-3.821-8.533-8.533-8.533h-17.067C319.554,213.333,315.733,217.154,315.733,221.867z"/>
		<path d="M401.067,213.333h-25.6c-4.713,0-8.533,3.821-8.533,8.533c0,4.713,3.821,8.533,8.533,8.533h25.6
			c4.713,0,8.533-3.821,8.533-8.533C409.6,217.154,405.78,213.333,401.067,213.333z"/>
		<path d="M204.8,281.6c-4.713,0-8.533,3.821-8.533,8.533c0,4.713,3.821,8.533,8.533,8.533h25.6c4.713,0,8.533-3.821,8.533-8.533
			c0-4.713-3.821-8.533-8.533-8.533H204.8z"/>
		<path d="M264.533,298.667h25.6c4.713,0,8.533-3.821,8.533-8.533c0-4.713-3.821-8.533-8.533-8.533h-25.6
			c-4.713,0-8.533,3.821-8.533,8.533C256,294.846,259.821,298.667,264.533,298.667z"/>
		<path d="M349.867,290.133c0-4.713-3.821-8.533-8.533-8.533h-17.067c-4.713,0-8.533,3.821-8.533,8.533
			c0,4.713,3.821,8.533,8.533,8.533h17.067C346.046,298.667,349.867,294.846,349.867,290.133z"/>
		<path d="M401.067,281.6h-25.6c-4.713,0-8.533,3.821-8.533,8.533c0,4.713,3.821,8.533,8.533,8.533h25.6
			c4.713,0,8.533-3.821,8.533-8.533C409.6,285.421,405.78,281.6,401.067,281.6z"/>
	</g>
</g>
<g>
</g>
<g>
</g>
<g>
</g>
<g>
</g>
<g>
</g>
<g>
</g>
<g>
</g>
<g>
</g>
<g>
</g>
<g>
</g>
<g>
</g>
<g>
</g>
<g>
</g>
<g>
</g>
<g>
</g>
</svg>
