<?xml version="1.0" encoding="utf-8"?>
<svg width="24" height="24" viewBox="0 0 24 24" fill="none" xmlns="http://www.w3.org/2000/svg">
  <path fill-rule="evenodd" clip-rule="evenodd" d="M6 3C6 1.34315 7.34315 0 9 0H14C14.2652 0 14.5196 0.105357 14.7071 0.292893L21.7071 7.29289C21.8946 7.48043 22 7.73478 22 8V17C22 18.6569 20.6569 20 19 20H18V21C18 22.6569 16.6569 24 15 24H5C3.34315 24 2 22.6569 2 21V7C2 5.34315 3.34315 4 5 4H6V3ZM6 6H5C4.44772 6 4 6.44772 4 7V21C4 21.5523 4.44772 22 5 22H15C15.5523 22 16 21.5523 16 21V20H9C7.34315 20 6 18.6569 6 17V6ZM9 2C8.44772 2 8 2.44772 8 3V17C8 17.5523 8.44771 18 9 18H19C19.5523 18 20 17.5523 20 17V9H16C14.3431 9 13 7.65685 13 6V2H9ZM15 3.41421L18.5858 7H16C15.4477 7 15 6.55228 15 6V3.41421Z" style="fill: rgb(224, 226, 249);"/>
</svg>