<?xml version="1.0" encoding="iso-8859-1"?>
<!-- Generator: Adobe Illustrator 19.0.0, SVG Export Plug-In . SVG Version: 6.00 Build 0)  -->
<svg version="1.1" id="Capa_1" xmlns="http://www.w3.org/2000/svg" xmlns:xlink="http://www.w3.org/1999/xlink" x="0px" y="0px"
	 viewBox="0 0 512 512" style="enable-background:new 0 0 512 512;" xml:space="preserve">
<g>
	<g>
		<path style="fill:#394F63;" d="M59.733,8.533h392.533c28.277,0,51.2,22.923,51.2,51.2v392.533c0,28.277-22.923,51.2-51.2,51.2
			H59.733c-28.277,0-51.2-22.923-51.2-51.2V59.733C8.533,31.456,31.456,8.533,59.733,8.533z"/>
		<g>
			<circle style="fill:#508892;" cx="72.533" cy="72.533" r="21.333"/>
			<circle style="fill:#508892;" cx="439.467" cy="72.533" r="21.333"/>
			<circle style="fill:#508892;" cx="72.533" cy="439.467" r="21.333"/>
			<circle style="fill:#508892;" cx="439.467" cy="439.467" r="21.333"/>
		</g>
	</g>
	<polygon style="fill:none;stroke:#000000;stroke-width:2;stroke-linecap:round;stroke-linejoin:round;" points="268.8,76.8 
		149.333,76.8 132.267,281.6 251.733,281.6 226.133,443.733 379.733,187.733 234.667,187.733 	"/>
	<g>
		<path style="fill:#B82B6A;" d="M59.733,8.533h392.533c28.277,0,51.2,22.923,51.2,51.2v392.533c0,28.277-22.923,51.2-51.2,51.2
			H59.733c-28.277,0-51.2-22.923-51.2-51.2V59.733C8.533,31.456,31.456,8.533,59.733,8.533z"/>
		<path style="fill:#EB3A76;" d="M57.933,8.533h362.001c27.283,0,49.399,22.117,49.399,49.399v396.134
			c0,27.283-22.117,49.4-49.399,49.4H57.933c-27.283,0-49.399-22.117-49.399-49.4V57.933C8.533,30.65,30.65,8.533,57.933,8.533z"/>
		<g>
			<circle style="fill:#FFE749;" cx="72.533" cy="72.533" r="21.333"/>
			<circle style="fill:#FFE749;" cx="439.467" cy="72.533" r="21.333"/>
			<circle style="fill:#FFE749;" cx="72.533" cy="439.467" r="21.333"/>
			<circle style="fill:#FFE749;" cx="439.467" cy="439.467" r="21.333"/>
		</g>
		<polygon style="fill:#F9D842;" points="237.397,372.309 251.733,281.6 132.267,281.6 149.333,76.8 268.8,76.8 234.667,187.733 
			379.733,187.733 226.133,443.733 		"/>
		<polygon style="fill:#FFE749;" points="237.397,372.309 251.733,281.6 132.267,281.6 147.2,102.4 221.867,102.4 187.733,213.333 
			332.8,213.333 		"/>
		<g>
			<path d="M452.267,0H59.733C26.759,0.038,0.038,26.759,0,59.733v392.533C0.038,485.241,26.759,511.962,59.733,512h392.533
				c32.974-0.038,59.695-26.759,59.733-59.733V59.733C511.962,26.759,485.241,0.038,452.267,0z M494.933,452.267
				c-0.028,23.553-19.114,42.639-42.667,42.667H59.733c-23.553-0.028-42.639-19.114-42.667-42.667V59.733
				c0.028-23.553,19.114-42.639,42.667-42.667h392.533c23.553,0.028,42.639,19.114,42.667,42.667V452.267z"/>
			<path d="M72.533,42.667c-16.495,0-29.867,13.372-29.867,29.867S56.038,102.4,72.533,102.4S102.4,89.028,102.4,72.533
				C102.38,56.047,89.02,42.687,72.533,42.667L72.533,42.667z M72.533,85.333c-7.069,0-12.8-5.731-12.8-12.8
				c0-7.069,5.731-12.8,12.8-12.8c7.069,0,12.8,5.731,12.8,12.8C85.326,79.599,79.599,85.326,72.533,85.333L72.533,85.333z"/>
			<path d="M439.467,42.667c-16.495,0-29.867,13.372-29.867,29.867s13.372,29.867,29.867,29.867
				c16.495,0,29.867-13.372,29.867-29.867C469.313,56.047,455.953,42.687,439.467,42.667L439.467,42.667z M439.467,85.333
				c-7.069,0-12.8-5.731-12.8-12.8c0-7.069,5.731-12.8,12.8-12.8c7.069,0,12.8,5.731,12.8,12.8
				C452.259,79.599,446.533,85.326,439.467,85.333L439.467,85.333z"/>
			<path d="M72.533,409.6c-16.495,0-29.867,13.372-29.867,29.867c0,16.495,13.372,29.867,29.867,29.867s29.867-13.372,29.867-29.867
				C102.38,422.98,89.02,409.62,72.533,409.6L72.533,409.6z M72.533,452.267c-7.069,0-12.8-5.731-12.8-12.8
				c0-7.069,5.731-12.8,12.8-12.8c7.069,0,12.8,5.731,12.8,12.8C85.326,446.533,79.599,452.259,72.533,452.267z"/>
			<path d="M439.467,409.6c-16.495,0-29.867,13.372-29.867,29.867c0,16.495,13.372,29.867,29.867,29.867
				c16.495,0,29.867-13.372,29.867-29.867C469.313,422.98,455.953,409.62,439.467,409.6L439.467,409.6z M439.467,452.267
				c-7.069,0-12.8-5.731-12.8-12.8c0-7.069,5.731-12.8,12.8-12.8c7.069,0,12.8,5.731,12.8,12.8
				C452.259,446.533,446.533,452.259,439.467,452.267L439.467,452.267z"/>
			<path d="M379.733,179.2H246.217l30.742-99.891c0.797-2.589,0.318-5.402-1.292-7.58c-1.609-2.178-4.158-3.463-6.866-3.462H149.333
				c-4.438-0.002-8.136,3.402-8.5,7.825l-17.067,204.8c-0.202,2.378,0.602,4.733,2.218,6.489c1.616,1.757,3.895,2.755,6.282,2.752
				H241.75l-24.042,152.271c-0.637,4.034,1.674,7.954,5.513,9.349c3.839,1.395,8.128-0.126,10.229-3.628l153.6-256
				c1.582-2.636,1.623-5.92,0.109-8.595C385.644,180.854,382.808,179.2,379.733,179.2z M241.408,401.683l18.75-118.754
				c0.388-2.464-0.322-4.974-1.942-6.871s-3.989-2.99-6.483-2.992H141.542l15.642-187.733H257.25l-30.741,99.892
				c-0.797,2.588-0.317,5.402,1.292,7.58c1.609,2.178,4.157,3.463,6.866,3.462h129.992L241.408,401.683z"/>
		</g>
	</g>
</g>
<g>
</g>
<g>
</g>
<g>
</g>
<g>
</g>
<g>
</g>
<g>
</g>
<g>
</g>
<g>
</g>
<g>
</g>
<g>
</g>
<g>
</g>
<g>
</g>
<g>
</g>
<g>
</g>
<g>
</g>
</svg>
